<svg xmlns="http://www.w3.org/2000/svg" viewBox="0 0 141.732 141.732"><path fill="#fff" d="M120.674 125.138H20.793v16.594h99.881v-16.594zm-1.655-66.362a6.56 6.56 0 0 0-9.275 0L77.21 91.312V6.562A6.563 6.563 0 0 0 70.648 0a6.56 6.56 0 0 0-6.56 6.563v84.75L31.992 59.218a6.556 6.556 0 0 0-9.277 0 6.56 6.56 0 0 0 0 9.279l43.294 43.293c.15.154.314.299.481.438l.234.176.279.206.286.174.265.153c.1.056.199.1.298.147l.283.132.295.105.312.109.297.077.324.078.346.054.289.042a6.67 6.67 0 0 0 1.295 0l.289-.042.344-.054.324-.078.299-.077.312-.109a2.53 2.53 0 0 0 .295-.105l.283-.132.297-.147.264-.153.287-.174.281-.206.233-.176c.249-.204.479-.437.694-.67l.229-.203 43.294-43.296a6.566 6.566 0 0 0 .001-9.283"/></svg>