<svg xmlns="http://www.w3.org/2000/svg" fill-rule="evenodd" stroke-linecap="round" stroke-linejoin="round" viewBox="0 0 24 24"><circle cx="12" cy="12" r="9.6" fill="none" stroke="#fff" stroke-width="1.92"/><path fill="#fff" fill-rule="nonzero" d="M14.024 6.16a1.75 1.75 0 0 1-.54 1.3c-.34.34-.76.5-1.26.5-.48 0-.92-.18-1.26-.52-.36-.36-.54-.78-.54-1.28s.18-.92.54-1.26c.34-.36.78-.54 1.26-.54.5 0 .92.18 1.26.54.36.34.54.76.54 1.26zm1.32 10.82v2.36h-6.34v-2.36h1.56v-5.5h-1.56v-2.4h4.82v7.9h1.52z"/></svg>