<svg xmlns="http://www.w3.org/2000/svg" height="141.732" width="141.732"><path d="M120.674 125.138H20.793v16.594h99.881v-16.594zm-1.655-66.362a6.56 6.56 0 0 0-9.275 0L77.21 91.312V6.562C77.21 2.936 74.269 0 70.648 0a6.56 6.56 0 0 0-6.56 6.563v84.75L31.992 59.218c-2.562-2.564-6.715-2.564-9.277 0a6.56 6.56 0 0 0 0 9.279l43.294 43.293c.15.154.314.299.481.438l.234.176.279.206.286.174.265.153c.1.056.199.1.298.147l.283.132.295.105.312.109.297.077.324.078.346.054.289.042a6.67 6.67 0 0 0 1.295 0l.289-.042.344-.054.324-.078.299-.077.312-.109a2.53 2.53 0 0 0 .295-.105l.283-.132.297-.147.264-.153.287-.174.281-.206.233-.176c.249-.204.479-.437.694-.67l.229-.203 43.294-43.296c2.563-2.568 2.563-6.722.001-9.283" fill="#fff"/></svg>
